<svg xmlns="http://www.w3.org/2000/svg" xmlns:xlink="http://www.w3.org/1999/xlink" width="40" zoomAndPan="magnify" viewBox="0 0 30 30.000001" height="40" preserveAspectRatio="xMidYMid meet" version="1.0"><defs><clipPath id="d5c32fc95f"><path d="M 1.144531 19 L 8 19 L 8 27 L 1.144531 27 Z M 1.144531 19 " clip-rule="nonzero"/></clipPath><clipPath id="557855d5d8"><path d="M 15 2.324219 L 25 2.324219 L 25 13 L 15 13 Z M 15 2.324219 " clip-rule="nonzero"/></clipPath><clipPath id="6995587dba"><path d="M 5 2.324219 L 24 2.324219 L 24 21 L 5 21 Z M 5 2.324219 " clip-rule="nonzero"/></clipPath><clipPath id="cd84220a26"><path d="M 22 20 L 28.722656 20 L 28.722656 27 L 22 27 Z M 22 20 " clip-rule="nonzero"/></clipPath></defs><path fill="#ffffff" d="M 6.4375 19.355469 L 4.15625 17.074219 L 5.632812 15.601562 L 7.082031 18.710938 Z M 6.4375 19.355469 " fill-opacity="1" fill-rule="nonzero"/><path fill="#ffffff" d="M 7.890625 20.808594 L 10.171875 23.089844 L 11.644531 21.613281 L 8.535156 20.164062 Z M 7.890625 20.808594 " fill-opacity="1" fill-rule="nonzero"/><g clip-path="url(#d5c32fc95f)"><path fill="#ffffff" d="M 3.914062 24.4375 L 7.71875 20.636719 L 6.609375 19.527344 L 2.808594 23.332031 L 1.148438 24.4375 L 2.808594 26.097656 Z M 3.914062 24.4375 " fill-opacity="1" fill-rule="nonzero"/></g><path fill="#ffffff" d="M 22.125 21.394531 L 19.84375 23.675781 L 18.367188 22.203125 L 21.480469 20.75 Z M 22.125 21.394531 " fill-opacity="1" fill-rule="nonzero"/><path fill="#ffffff" d="M 23.574219 19.945312 L 25.859375 17.660156 L 24.382812 16.1875 L 22.929688 19.296875 Z M 23.574219 19.945312 " fill-opacity="1" fill-rule="nonzero"/><g clip-path="url(#557855d5d8)"><path fill="#ffffff" d="M 17.191406 12.222656 L 23.570312 6.535156 L 24.90625 2.339844 L 20.714844 3.675781 L 15.140625 9.925781 Z M 17.191406 12.222656 " fill-opacity="1" fill-rule="nonzero"/></g><path fill="#ffffff" d="M 12.289062 13.121094 L 6.980469 19.070312 L 8.179688 20.269531 L 14.238281 14.859375 Z M 12.289062 13.121094 " fill-opacity="1" fill-rule="nonzero"/><g clip-path="url(#6995587dba)"><path fill="#ffffff" d="M 23.035156 19.65625 L 21.835938 20.855469 L 6.445312 7.121094 L 5.109375 2.925781 L 9.300781 4.261719 Z M 23.035156 19.65625 " fill-opacity="1" fill-rule="nonzero"/></g><g clip-path="url(#cd84220a26)"><path fill="#ffffff" d="M 27.203125 23.917969 L 23.402344 20.117188 L 22.296875 21.222656 L 26.101562 25.023438 L 27.203125 26.683594 L 28.863281 25.023438 Z M 27.203125 23.917969 " fill-opacity="1" fill-rule="nonzero"/></g></svg>