<svg xmlns="http://www.w3.org/2000/svg" xmlns:xlink="http://www.w3.org/1999/xlink" width="40" zoomAndPan="magnify" viewBox="0 0 30 30.000001" height="40" preserveAspectRatio="xMidYMid meet" version="1.0"><defs><clipPath id="916cb3436e"><path d="M 9 3 L 28.347656 3 L 28.347656 26.757812 L 9 26.757812 Z M 9 3 " clip-rule="nonzero"/></clipPath><clipPath id="4e25beeae3"><path d="M 1.496094 3 L 10 3 L 10 26.757812 L 1.496094 26.757812 Z M 1.496094 3 " clip-rule="nonzero"/></clipPath><clipPath id="aef1ba8596"><path d="M 9 3 L 28.347656 3 L 28.347656 6 L 9 6 Z M 9 3 " clip-rule="nonzero"/></clipPath><clipPath id="05b31d9f4c"><path d="M 9 6 L 28.347656 6 L 28.347656 9 L 9 9 Z M 9 6 " clip-rule="nonzero"/></clipPath><clipPath id="7de736e1f9"><path d="M 9 20 L 28.347656 20 L 28.347656 24 L 9 24 Z M 9 20 " clip-rule="nonzero"/></clipPath><clipPath id="d921a76f72"><path d="M 9 5 L 10 5 L 10 26.757812 L 9 26.757812 Z M 9 5 " clip-rule="nonzero"/></clipPath><clipPath id="b766c0e656"><path d="M 1.496094 3 L 10 3 L 10 6 L 1.496094 6 Z M 1.496094 3 " clip-rule="nonzero"/></clipPath><clipPath id="0039bfcc2a"><path d="M 1.496094 5 L 10 5 L 10 9 L 1.496094 9 Z M 1.496094 5 " clip-rule="nonzero"/></clipPath><clipPath id="2369500a41"><path d="M 1.496094 18 L 10 18 L 10 24 L 1.496094 24 Z M 1.496094 18 " clip-rule="nonzero"/></clipPath><clipPath id="831bff9b2a"><path d="M 1.496094 2.078125 L 28.347656 2.078125 L 28.347656 5 L 1.496094 5 Z M 1.496094 2.078125 " clip-rule="nonzero"/></clipPath><clipPath id="7bbd47ca23"><path d="M 16 2.078125 L 24 2.078125 L 24 4 L 16 4 Z M 16 2.078125 " clip-rule="nonzero"/></clipPath><clipPath id="b5c7ff3bda"><path d="M 16 2.078125 L 23 2.078125 L 23 4 L 16 4 Z M 16 2.078125 " clip-rule="nonzero"/></clipPath><clipPath id="a8b2856a25"><path d="M 6 2.078125 L 16 2.078125 L 16 4 L 6 4 Z M 6 2.078125 " clip-rule="nonzero"/></clipPath><clipPath id="4483781473"><path d="M 8 2.078125 L 15 2.078125 L 15 4 L 8 4 Z M 8 2.078125 " clip-rule="nonzero"/></clipPath><clipPath id="133812309a"><path d="M 7 2.078125 L 15 2.078125 L 15 4 L 7 4 Z M 7 2.078125 " clip-rule="nonzero"/></clipPath></defs><g clip-path="url(#916cb3436e)"><path stroke-linecap="round" transform="matrix(0.0442638, 0, 0, 0.0441618, -14.409508, -1.977765)" fill-opacity="1" fill="#dbad55" fill-rule="evenodd" stroke-linejoin="round" d="M 965.344911 129.257348 C 965.256662 129.257348 542.542309 154.643414 542.45406 154.643414 C 542.45406 154.731867 542.983556 649.450568 542.983556 649.539021 C 542.983556 649.539021 958.72621 576.565138 958.72621 576.565138 C 958.72621 576.476685 965.344911 129.257348 965.344911 129.257348 Z M 965.344911 129.257348 " stroke="#dbad55" stroke-width="1" stroke-opacity="1" stroke-miterlimit="4"/></g><g clip-path="url(#4e25beeae3)"><path stroke-linecap="round" transform="matrix(0.0442638, 0, 0, 0.0441618, -14.409508, -1.977765)" fill-opacity="1" fill="#c69030" fill-rule="evenodd" stroke-linejoin="round" d="M 542.189312 154.378055 C 542.189312 154.378055 359.954419 113.24732 359.954419 113.24732 C 359.954419 113.335774 368.426356 529.24268 368.426356 529.331134 C 368.426356 529.331134 542.718808 649.539021 542.718808 649.627474 C 542.718808 649.539021 542.189312 154.466508 542.189312 154.378055 Z M 542.189312 154.378055 " stroke="#c69030" stroke-width="1" stroke-opacity="1" stroke-miterlimit="4"/></g><path stroke-linecap="round" transform="matrix(0.0442638, 0, 0, 0.0441618, -14.409508, -1.977765)" fill-opacity="1" fill="#c69030" fill-rule="evenodd" stroke-linejoin="round" d="M 909.218329 201.169793 C 909.218329 201.169793 606.170086 224.07917 606.170086 224.07917 C 606.170086 224.167623 606.87608 575.326793 606.87608 575.326793 C 606.87608 575.326793 908.424085 529.419587 908.512334 529.419587 C 908.512334 529.419587 909.218329 201.169793 909.218329 201.169793 Z M 909.218329 201.169793 " stroke="#c69030" stroke-width="1" stroke-opacity="1" stroke-miterlimit="4"/><path stroke-linecap="round" transform="matrix(0.0442638, 0, 0, 0.0441618, -14.409508, -1.977765)" fill-opacity="1" fill="#b3802f" fill-rule="evenodd" stroke-linejoin="round" d="M 511.919787 221.337121 C 511.919787 221.337121 384.134739 187.724908 384.134739 187.724908 C 384.134739 187.724908 390.223944 488.819572 390.223944 488.819572 C 390.223944 488.819572 511.743289 565.773849 511.743289 565.773849 C 511.743289 565.773849 511.919787 221.337121 511.919787 221.337121 Z M 511.919787 221.337121 " stroke="#b3802f" stroke-width="1" stroke-opacity="1" stroke-miterlimit="4"/><g clip-path="url(#aef1ba8596)"><path stroke-linecap="round" transform="matrix(0.0442638, 0, 0, 0.0441618, -14.409508, -1.977765)" fill="none" stroke-linejoin="round" d="M 963.932922 136.156697 C 823.528217 144.55975 683.123513 152.962804 542.718808 161.365857 " stroke="#a07026" stroke-width="4" stroke-opacity="1" stroke-miterlimit="4"/></g><g clip-path="url(#05b31d9f4c)"><path stroke-linecap="round" transform="matrix(0.0442638, 0, 0, 0.0441618, -14.409508, -1.977765)" fill="none" stroke-linejoin="round" d="M 962.962179 196.127961 C 822.998721 207.096157 683.123513 217.975899 543.160055 228.944095 " stroke="#a07026" stroke-width="4" stroke-opacity="1" stroke-miterlimit="4"/></g><g clip-path="url(#7de736e1f9)"><path stroke-linecap="round" transform="matrix(0.0442638, 0, 0, 0.0441618, -14.409508, -1.977765)" fill="none" stroke-linejoin="round" d="M 958.373213 520.662721 C 820.086493 542.333753 681.799772 563.916332 543.601302 585.587363 " stroke="#a07026" stroke-width="4" stroke-opacity="1" stroke-miterlimit="4"/></g><g clip-path="url(#d921a76f72)"><path stroke-linecap="round" transform="matrix(0.0442638, 0, 0, 0.0441618, -14.409508, -1.977765)" fill="none" stroke-linejoin="round" d="M 542.895307 161.18895 C 542.895307 323.58901 542.983556 486.077523 542.983556 648.477583 " stroke="#a07026" stroke-width="4" stroke-opacity="1" stroke-miterlimit="4"/></g><path stroke-linecap="round" transform="matrix(0.0442638, 0, 0, 0.0441618, -14.409508, -1.977765)" fill="none" stroke-linejoin="round" d="M 607.493826 224.167623 C 607.582075 341.368102 607.670324 458.56858 607.758574 575.769059 " stroke="#a07026" stroke-width="4" stroke-opacity="1" stroke-miterlimit="4"/><path stroke-linecap="round" transform="matrix(0.0442638, 0, 0, 0.0441618, -14.409508, -1.977765)" fill="none" stroke-linejoin="round" d="M 628.585419 222.398559 C 628.673668 339.068319 628.761917 455.649625 628.850167 572.319385 " stroke="#a07026" stroke-width="4" stroke-opacity="1" stroke-miterlimit="4"/><path stroke-linecap="round" transform="matrix(0.0442638, 0, 0, 0.0441618, -14.409508, -1.977765)" fill="none" stroke-linejoin="round" d="M 679.50529 218.948884 C 679.858287 333.84958 680.123035 448.838729 680.387783 563.739425 " stroke="#a07026" stroke-width="4" stroke-opacity="1" stroke-miterlimit="4"/><path stroke-linecap="round" transform="matrix(0.0442638, 0, 0, 0.0441618, -14.409508, -1.977765)" fill="none" stroke-linejoin="round" d="M 731.307654 214.526225 C 731.484153 328.277029 731.748901 442.116287 732.013649 555.867091 " stroke="#a07026" stroke-width="4" stroke-opacity="1" stroke-miterlimit="4"/><path stroke-linecap="round" transform="matrix(0.0442638, 0, 0, 0.0441618, -14.409508, -1.977765)" fill="none" stroke-linejoin="round" d="M 783.904262 210.722738 C 784.16901 322.792931 784.433758 434.863125 784.786756 546.844866 " stroke="#a07026" stroke-width="4" stroke-opacity="1" stroke-miterlimit="4"/><path stroke-linecap="round" transform="matrix(0.0442638, 0, 0, 0.0441618, -14.409508, -1.977765)" fill="none" stroke-linejoin="round" d="M 836.059624 207.361516 C 836.324372 317.662646 836.677369 428.052229 836.942117 538.353359 " stroke="#a07026" stroke-width="4" stroke-opacity="1" stroke-miterlimit="4"/><path stroke-linecap="round" transform="matrix(0.0442638, 0, 0, 0.0441618, -14.409508, -1.977765)" fill="none" stroke-linejoin="round" d="M 888.126736 203.823389 C 888.303235 312.974627 888.479733 422.125865 888.656232 531.277104 " stroke="#a07026" stroke-width="4" stroke-opacity="1" stroke-miterlimit="4"/><path stroke-linecap="round" transform="matrix(0.0442638, 0, 0, 0.0441618, -14.409508, -1.977765)" fill="none" stroke-linejoin="round" d="M 907.80634 201.258246 C 907.894589 310.321031 907.982838 419.383817 908.071088 528.446602 " stroke="#a07026" stroke-width="4" stroke-opacity="1" stroke-miterlimit="4"/><g clip-path="url(#b766c0e656)"><path stroke-linecap="round" transform="matrix(0.0442638, 0, 0, 0.0441618, -14.409508, -1.977765)" fill="none" stroke-linejoin="round" d="M 543.248304 161.719669 C 482.621006 148.186331 422.081956 134.652993 361.454658 121.031201 " stroke="#a07026" stroke-width="4" stroke-opacity="1" stroke-miterlimit="4"/></g><g clip-path="url(#0039bfcc2a)"><path stroke-linecap="round" transform="matrix(0.0442638, 0, 0, 0.0441618, -14.409508, -1.977765)" fill="none" stroke-linejoin="round" d="M 542.718808 228.590282 C 482.621006 212.934067 422.523203 197.277852 362.51365 181.621638 " stroke="#a07026" stroke-width="4" stroke-opacity="1" stroke-miterlimit="4"/></g><g clip-path="url(#2369500a41)"><path stroke-linecap="round" transform="matrix(0.0442638, 0, 0, 0.0441618, -14.409508, -1.977765)" fill="none" stroke-linejoin="round" d="M 543.248304 585.675817 C 485.003738 548.790836 426.847421 511.905855 368.691104 475.020874 " stroke="#a07026" stroke-width="4" stroke-opacity="1" stroke-miterlimit="4"/></g><path stroke-linecap="round" transform="matrix(0.0442638, 0, 0, 0.0441618, -14.409508, -1.977765)" fill="none" stroke-linejoin="round" d="M 511.743289 565.596942 C 511.919787 450.696246 512.008037 335.707097 512.184536 220.717948 " stroke="#a07026" stroke-width="4" stroke-opacity="1" stroke-miterlimit="4"/><path stroke-linecap="round" transform="matrix(0.0442638, 0, 0, 0.0441618, -14.409508, -1.977765)" fill="none" stroke-linejoin="round" d="M 500.182625 558.520687 C 500.359124 445.035242 500.535622 331.549797 500.712121 217.975899 " stroke="#a07026" stroke-width="4" stroke-opacity="1" stroke-miterlimit="4"/><path stroke-linecap="round" transform="matrix(0.0442638, 0, 0, 0.0441618, -14.409508, -1.977765)" fill="none" stroke-linejoin="round" d="M 479.797027 545.075802 C 479.532279 434.509312 479.35578 323.942823 479.179281 213.376333 " stroke="#a07026" stroke-width="4" stroke-opacity="1" stroke-miterlimit="4"/><path stroke-linecap="round" transform="matrix(0.0442638, 0, 0, 0.0441618, -14.409508, -1.977765)" fill="none" stroke-linejoin="round" d="M 459.764426 532.515449 C 459.23493 423.983382 458.705434 315.451316 458.175938 207.007704 " stroke="#a07026" stroke-width="4" stroke-opacity="1" stroke-miterlimit="4"/><path stroke-linecap="round" transform="matrix(0.0442638, 0, 0, 0.0441618, -14.409508, -1.977765)" fill="none" stroke-linejoin="round" d="M 438.761082 518.539844 C 437.878589 413.280546 436.996095 307.932795 436.113602 202.585044 " stroke="#a07026" stroke-width="4" stroke-opacity="1" stroke-miterlimit="4"/><path stroke-linecap="round" transform="matrix(0.0442638, 0, 0, 0.0441618, -14.409508, -1.977765)" fill="none" stroke-linejoin="round" d="M 419.169728 506.067944 C 417.845988 402.754616 416.522248 299.352836 415.110258 196.039508 " stroke="#a07026" stroke-width="4" stroke-opacity="1" stroke-miterlimit="4"/><path stroke-linecap="round" transform="matrix(0.0442638, 0, 0, 0.0441618, -14.409508, -1.977765)" fill="none" stroke-linejoin="round" d="M 398.607631 493.949857 C 396.930894 392.670953 395.254156 291.480502 393.665668 190.201597 " stroke="#a07026" stroke-width="4" stroke-opacity="1" stroke-miterlimit="4"/><path stroke-linecap="round" transform="matrix(0.0442638, 0, 0, 0.0441618, -14.409508, -1.977765)" fill="none" stroke-linejoin="round" d="M 390.75344 489.173385 C 388.900204 388.955919 386.958718 288.649999 385.105482 188.34408 " stroke="#a07026" stroke-width="4" stroke-opacity="1" stroke-miterlimit="4"/><g clip-path="url(#831bff9b2a)"><path stroke-linecap="round" transform="matrix(0.0442638, 0, 0, 0.0441618, -14.409508, -1.977765)" fill-opacity="1" fill="#f2d086" fill-rule="evenodd" stroke-linejoin="round" d="M 721.335478 92.46082 C 721.335478 92.46082 360.042668 113.24732 360.042668 113.24732 C 360.042668 113.24732 542.630559 153.758882 542.630559 153.758882 C 542.630559 153.758882 965.344911 128.903535 965.344911 128.903535 C 965.344911 128.903535 721.335478 92.46082 721.335478 92.46082 Z M 721.335478 92.46082 " stroke="#f2d086" stroke-width="1" stroke-opacity="1" stroke-miterlimit="4"/></g><path fill="#dbad55" d="M 12.5 7.917969 C 13.058594 7.875 13.800781 7.8125 14.359375 7.773438 C 14.359375 7.773438 25.773438 19.414062 25.773438 19.414062 C 25.773438 20 25.769531 21.363281 25.769531 21.363281 C 25.28125 21.4375 24.144531 21.613281 24.144531 21.613281 C 20.648438 18.136719 12.5 10.019531 12.5 10.019531 C 12.5 9.390625 12.5 7.917969 12.5 7.917969 Z M 12.5 7.917969 " fill-opacity="1" fill-rule="evenodd"/><path stroke-linecap="round" transform="matrix(0.0442638, 0, 0, 0.0441618, -14.409508, -1.977765)" fill="none" stroke-linejoin="round" d="M 907.80634 484.396912 C 907.80634 484.396912 649.94176 220.806401 649.94176 220.806401 C 637.322104 221.690933 620.554729 223.106184 607.935073 224.07917 C 607.935073 224.07917 607.935073 257.426023 607.935073 271.666987 C 607.935073 271.666987 792.023202 455.472719 871.006364 534.196059 C 871.006364 534.196059 896.686922 530.215666 907.71809 528.535055 C 907.71809 528.535055 907.80634 497.664891 907.80634 484.396912 M 607.935073 224.07917 L 607.935073 224.07917 " stroke="#ab7930" stroke-width="4" stroke-opacity="1" stroke-miterlimit="4"/><path fill="#c69030" d="M 2.625 6.285156 C 2.878906 6.351562 3.21875 6.445312 3.476562 6.5 C 3.476562 6.5 8.253906 19.394531 8.253906 19.394531 C 8.253906 20.484375 8.25 23.023438 8.25 23.023438 C 8.03125 22.886719 7.519531 22.5625 7.519531 22.5625 C 6.0625 18.371094 2.667969 8.597656 2.667969 8.59375 C 2.652344 7.902344 2.625 6.285156 2.625 6.285156 Z M 2.625 6.285156 " fill-opacity="1" fill-rule="evenodd"/><path stroke-linecap="round" transform="matrix(0.0442638, 0, 0, 0.0441618, -14.409508, -1.977765)" fill="none" stroke-linejoin="round" d="M 512.008037 483.954646 C 512.008037 483.954646 404.079091 191.970661 404.079091 191.970661 C 398.254634 190.732316 390.576941 188.60944 384.840734 187.105735 C 384.840734 187.105735 385.458479 223.725357 385.811477 239.381572 C 385.811477 239.470025 462.500155 460.77991 495.41716 555.690185 C 495.41716 555.690185 506.977824 563.0318 511.919787 566.127661 C 511.919787 566.127661 512.008037 508.633087 512.008037 483.954646 M 384.840734 187.105735 L 384.840734 187.105735 " stroke="#a5752b" stroke-width="3" stroke-opacity="1" stroke-miterlimit="4"/><g clip-path="url(#7bbd47ca23)"><path stroke-linecap="round" transform="matrix(0.0442638, 0, 0, 0.0441618, -14.409508, -1.977765)" fill-opacity="1" fill="#c38f2c" fill-rule="evenodd" stroke-linejoin="round" d="M 732.013649 101.30614 C 732.013649 101.30614 688.153725 116.696995 688.153725 116.696995 C 688.241975 116.696995 846.208298 120.412029 846.208298 120.412029 C 846.208298 120.323576 732.013649 101.30614 732.013649 101.30614 Z M 732.013649 101.30614 " stroke="#c38f2c" stroke-width="1" stroke-opacity="1" stroke-miterlimit="4"/></g><g clip-path="url(#b5c7ff3bda)"><path stroke-linecap="round" transform="matrix(0.0442638, 0, 0, 0.0441618, -14.409508, -1.977765)" fill-opacity="1" fill="#deac49" fill-rule="evenodd" stroke-linejoin="round" d="M 732.984391 104.402001 C 732.984391 104.402001 825.557952 119.88131 825.557952 119.88131 C 825.557952 119.88131 699.449641 116.962355 699.449641 116.962355 C 699.449641 116.962355 732.984391 104.402001 732.984391 104.402001 Z M 732.984391 104.402001 " stroke="#deac49" stroke-width="1" stroke-opacity="1" stroke-miterlimit="4"/></g><g clip-path="url(#a8b2856a25)"><path stroke-linecap="round" transform="matrix(0.0442638, 0, 0, 0.0441618, -14.409508, -1.977765)" fill-opacity="1" fill="#c68f32" fill-rule="evenodd" stroke-linejoin="round" d="M 620.731227 115.547103 C 620.731227 115.547103 462.058909 112.097429 462.058909 112.097429 C 462.058909 112.097429 673.327836 99.537076 673.416085 99.537076 C 673.416085 99.537076 620.731227 115.547103 620.731227 115.547103 Z M 620.731227 115.547103 " stroke="#c68f32" stroke-width="1" stroke-opacity="1" stroke-miterlimit="4"/></g><g clip-path="url(#4483781473)"><path fill="#deac4b" d="M 13.066406 3.125 C 13.066406 3.125 8.019531 3.015625 8.019531 3.015625 C 8.019531 3.015625 14.480469 2.695312 14.484375 2.695312 C 14.484375 2.695312 13.066406 3.125 13.066406 3.125 Z M 13.066406 3.125 " fill-opacity="1" fill-rule="evenodd"/></g><g clip-path="url(#133812309a)"><path stroke-linecap="round" transform="matrix(0.0442638, 0, 0, 0.0441618, -14.409508, -1.977765)" fill="none" stroke-linejoin="round" d="M 620.731227 115.547103 C 620.731227 115.547103 506.713076 113.070414 506.713076 113.070414 C 506.713076 113.070414 652.677489 105.817252 652.765739 105.817252 C 652.765739 105.817252 620.731227 115.547103 620.731227 115.547103 Z M 620.731227 115.547103 " stroke="#deac4b" stroke-width="1" stroke-opacity="1" stroke-miterlimit="4"/></g><path stroke-linecap="round" transform="matrix(0.0442638, 0, 0, 0.0441618, -14.409508, -1.977765)" fill-opacity="1" fill="#c28c2c" fill-rule="evenodd" stroke-linejoin="round" d="M 549.337509 137.041229 C 549.337509 137.041229 425.435431 115.016384 425.347182 115.016384 C 425.435431 115.016384 596.992154 122.800265 596.992154 122.800265 C 596.992154 122.800265 549.425758 137.041229 549.337509 137.041229 Z M 549.337509 137.041229 " stroke="#c28c2c" stroke-width="1" stroke-opacity="1" stroke-miterlimit="4"/><path stroke-linecap="round" transform="matrix(0.0442638, 0, 0, 0.0441618, -14.409508, -1.977765)" fill-opacity="1" fill="#deac4b" fill-rule="evenodd" stroke-linejoin="round" d="M 549.425758 137.041229 C 549.337509 137.041229 454.998961 120.323576 454.998961 120.323576 C 454.998961 120.323576 586.84348 125.807674 586.84348 125.807674 C 586.84348 125.807674 549.425758 137.041229 549.425758 137.041229 Z M 549.425758 137.041229 " stroke="#deac4b" stroke-width="1" stroke-opacity="1" stroke-miterlimit="4"/><path stroke-linecap="round" transform="matrix(0.0442638, 0, 0, 0.0441618, -14.409508, -1.977765)" fill-opacity="1" fill="#c69030" fill-rule="evenodd" stroke-linejoin="round" d="M 669.268366 123.861703 C 669.268366 123.861703 810.555564 127.753644 810.555564 127.753644 C 810.555564 127.753644 636.616109 136.687416 636.52786 136.687416 C 636.52786 136.687416 669.268366 123.861703 669.268366 123.861703 Z M 669.268366 123.861703 " stroke="#c69030" stroke-width="1" stroke-opacity="1" stroke-miterlimit="4"/><path stroke-linecap="round" transform="matrix(0.0442638, 0, 0, 0.0441618, -14.409508, -1.977765)" fill-opacity="1" fill="#deac49" fill-rule="evenodd" stroke-linejoin="round" d="M 669.533114 127.222925 C 669.533114 127.222925 750.457761 130.849506 750.457761 130.849506 C 750.369512 130.849506 651.089001 135.979791 651.089001 135.979791 C 651.089001 135.979791 669.533114 127.222925 669.533114 127.222925 Z M 669.533114 127.222925 " stroke="#deac49" stroke-width="1" stroke-opacity="1" stroke-miterlimit="4"/></svg>