<svg xmlns="http://www.w3.org/2000/svg" xmlns:xlink="http://www.w3.org/1999/xlink" width="40" zoomAndPan="magnify" viewBox="0 0 30 30.000001" height="40" preserveAspectRatio="xMidYMid meet" version="1.0"><defs><clipPath id="3b925fca0f"><path d="M 3.8125 1.394531 L 26.3125 1.394531 L 26.3125 27.523438 L 3.8125 27.523438 Z M 3.8125 1.394531 " clip-rule="nonzero"/></clipPath></defs><path fill="#ffffff" d="M 23.667969 7.367188 C 23.753906 8.726562 23.761719 10.824219 23.320312 13.113281 C 22.839844 15.601562 21.933594 17.8125 20.625 19.675781 C 19.273438 21.601562 17.453125 23.199219 15.210938 24.425781 L 15.210938 4.621094 C 15.214844 4.621094 15.21875 4.617188 15.222656 4.617188 C 17.578125 5.753906 20.113281 6.496094 21.898438 6.929688 C 22.484375 7.070312 23.074219 7.203125 23.664062 7.320312 C 23.667969 7.335938 23.667969 7.351562 23.667969 7.367188 " fill-opacity="1" fill-rule="nonzero"/><g clip-path="url(#3b925fca0f)"><path fill="#ffffff" d="M 24.847656 13.40625 C 24.328125 16.113281 23.335938 18.523438 21.898438 20.570312 C 20.253906 22.917969 17.996094 24.804688 15.179688 26.195312 C 12.394531 24.808594 10.15625 22.917969 8.519531 20.574219 C 7.089844 18.527344 6.101562 16.117188 5.578125 13.40625 C 5.105469 10.953125 5.109375 8.714844 5.195312 7.265625 C 5.222656 6.785156 5.261719 6.363281 5.300781 6.007812 C 6.050781 5.878906 7.046875 5.683594 8.164062 5.414062 C 10.125 4.9375 12.839844 4.128906 15.222656 2.875 C 17.601562 4.128906 20.3125 4.941406 22.269531 5.414062 C 23.382812 5.6875 24.367188 5.878906 25.109375 6.011719 C 25.152344 6.363281 25.191406 6.789062 25.222656 7.269531 C 25.3125 8.71875 25.320312 10.957031 24.847656 13.40625 Z M 26.507812 7.191406 C 26.441406 6.132812 26.328125 5.332031 26.253906 4.890625 C 25.609375 4.792969 24.242188 4.570312 22.574219 4.164062 C 20.519531 3.664062 17.613281 2.785156 15.222656 1.402344 C 12.832031 2.785156 9.917969 3.664062 7.859375 4.164062 C 6.195312 4.566406 4.804688 4.792969 4.152344 4.890625 C 4.082031 5.328125 3.972656 6.125 3.910156 7.191406 C 3.816406 8.710938 3.816406 11.066406 4.3125 13.648438 C 4.871094 16.539062 5.929688 19.117188 7.460938 21.3125 C 9.335938 23.996094 11.929688 26.117188 15.179688 27.625 C 18.453125 26.117188 21.070312 23.996094 22.953125 21.308594 C 24.496094 19.113281 25.558594 16.539062 26.113281 13.648438 C 26.609375 11.066406 26.601562 8.710938 26.507812 7.191406 " fill-opacity="1" fill-rule="nonzero"/></g><path fill="#ffffff" d="M 23.320312 13.113281 C 22.839844 15.601562 21.933594 17.8125 20.625 19.675781 C 19.273438 21.601562 17.453125 23.199219 15.210938 24.425781 L 15.210938 4.621094 C 15.214844 4.621094 15.21875 4.617188 15.222656 4.617188 C 17.578125 5.753906 20.113281 6.496094 21.898438 6.929688 C 22.484375 7.070312 23.074219 7.203125 23.664062 7.320312 C 23.667969 7.335938 23.667969 7.351562 23.667969 7.367188 C 23.753906 8.726562 23.761719 10.824219 23.320312 13.113281 " fill-opacity="1" fill-rule="nonzero"/></svg>