<svg xmlns="http://www.w3.org/2000/svg" xmlns:xlink="http://www.w3.org/1999/xlink" width="1100" zoomAndPan="magnify" viewBox="0 0 824.88 37.5" height="50" preserveAspectRatio="xMidYMid meet" version="1.0"><defs><clipPath id="dc7f8c25a6"><path d="M 5.367188 0 L 819.394531 0 L 819.394531 36.265625 L 5.367188 36.265625 Z M 5.367188 0 " clip-rule="nonzero"/></clipPath></defs><g clip-path="url(#dc7f8c25a6)"><path fill="#ffffff" d="M 415.835938 8.507812 L 412.882812 11.429688 C 412.550781 11.757812 412.019531 11.757812 411.683594 11.429688 L 408.734375 8.507812 C 408.398438 8.175781 408.398438 7.648438 408.734375 7.320312 L 411.683594 4.398438 C 412.019531 4.066406 412.550781 4.066406 412.882812 4.398438 L 415.835938 7.320312 C 416.167969 7.648438 416.167969 8.175781 415.835938 8.507812 Z M 412.882812 0.242188 L 420.03125 7.320312 C 420.363281 7.648438 420.363281 8.175781 420.03125 8.507812 L 412.882812 15.582031 C 412.550781 15.914062 412.019531 15.914062 411.683594 15.582031 L 404.539062 8.507812 C 404.207031 8.175781 404.207031 7.648438 404.539062 7.320312 L 411.683594 0.242188 C 412.019531 -0.0859375 412.550781 -0.0859375 412.882812 0.242188 Z M 407.136719 8.507812 L 411.683594 13.011719 C 412.019531 13.34375 412.550781 13.34375 412.882812 13.011719 L 417.433594 8.507812 C 417.765625 8.175781 417.765625 7.648438 417.433594 7.320312 L 412.882812 2.8125 C 412.550781 2.484375 412.019531 2.484375 411.683594 2.8125 L 407.136719 7.320312 C 406.800781 7.648438 406.800781 8.175781 407.136719 8.507812 Z M 415.835938 27.695312 L 412.882812 24.769531 C 412.550781 24.441406 412.019531 24.441406 411.683594 24.769531 L 408.734375 27.695312 C 408.398438 28.023438 408.398438 28.550781 408.734375 28.878906 L 411.683594 31.804688 C 412.019531 32.132812 412.550781 32.132812 412.882812 31.804688 L 415.835938 28.878906 C 416.167969 28.550781 416.167969 28.023438 415.835938 27.695312 Z M 412.882812 20.617188 L 420.03125 27.695312 C 420.363281 28.023438 420.363281 28.550781 420.03125 28.878906 L 412.882812 35.957031 C 412.550781 36.289062 412.019531 36.289062 411.683594 35.957031 L 404.539062 28.878906 C 404.207031 28.550781 404.207031 28.023438 404.539062 27.695312 L 411.683594 20.617188 C 412.019531 20.285156 412.550781 20.285156 412.882812 20.617188 Z M 407.136719 28.878906 L 411.683594 33.386719 C 412.019531 33.714844 412.550781 33.714844 412.882812 33.386719 L 417.433594 28.878906 C 417.765625 28.550781 417.765625 28.023438 417.433594 27.695312 L 412.882812 23.1875 C 412.550781 22.859375 412.019531 22.859375 411.683594 23.1875 L 407.136719 27.695312 C 406.800781 28.023438 406.800781 28.550781 407.136719 28.878906 Z M 401.410156 14.59375 L 398.457031 17.519531 C 398.125 17.847656 398.125 18.375 398.457031 18.703125 L 401.410156 21.628906 C 401.742188 21.957031 402.273438 21.957031 402.605469 21.628906 L 405.558594 18.703125 C 405.890625 18.375 405.890625 17.847656 405.558594 17.519531 L 402.605469 14.59375 C 402.273438 14.265625 401.742188 14.265625 401.410156 14.59375 Z M 394.261719 17.519531 L 401.410156 10.441406 C 401.742188 10.109375 402.273438 10.109375 402.605469 10.441406 L 409.753906 17.519531 C 410.085938 17.847656 410.085938 18.375 409.753906 18.703125 L 402.605469 25.78125 C 402.273438 26.113281 401.742188 26.113281 401.410156 25.78125 L 394.261719 18.703125 C 393.929688 18.375 393.929688 17.847656 394.261719 17.519531 Z M 402.605469 23.210938 L 407.15625 18.703125 C 407.492188 18.375 407.492188 17.847656 407.15625 17.519531 L 402.605469 13.011719 C 402.273438 12.683594 401.742188 12.683594 401.410156 13.011719 L 396.859375 17.519531 C 396.527344 17.847656 396.527344 18.375 396.859375 18.703125 L 401.410156 23.210938 C 401.742188 23.539062 402.273438 23.539062 402.605469 23.210938 Z M 421.984375 14.59375 L 419.03125 17.519531 C 418.699219 17.847656 418.699219 18.375 419.03125 18.703125 L 421.984375 21.628906 C 422.316406 21.957031 422.851562 21.957031 423.183594 21.628906 L 426.136719 18.703125 C 426.46875 18.375 426.46875 17.847656 426.136719 17.519531 L 423.183594 14.59375 C 422.851562 14.265625 422.316406 14.265625 421.984375 14.59375 Z M 414.835938 17.519531 L 421.984375 10.441406 C 422.316406 10.109375 422.851562 10.109375 423.183594 10.441406 L 430.328125 17.519531 C 430.664062 17.847656 430.664062 18.375 430.328125 18.703125 L 423.183594 25.78125 C 422.851562 26.113281 422.316406 26.113281 421.984375 25.78125 L 414.835938 18.703125 C 414.503906 18.375 414.503906 17.847656 414.835938 17.519531 Z M 423.183594 23.210938 L 427.734375 18.703125 C 428.066406 18.375 428.066406 17.847656 427.734375 17.519531 L 423.183594 13.011719 C 422.851562 12.683594 422.316406 12.683594 421.984375 13.011719 L 417.433594 17.519531 C 417.101562 17.847656 417.101562 18.375 417.433594 18.703125 L 421.984375 23.210938 C 422.316406 23.539062 422.851562 23.539062 423.183594 23.210938 Z M 433.902344 15.914062 L 433.902344 20.308594 L 819.535156 18.109375 Z M 391 20.308594 L 391 15.914062 L 5.367188 18.089844 L 391 20.285156 Z M 391 20.308594 " fill-opacity="1" fill-rule="nonzero"/></g></svg>