<svg xmlns="http://www.w3.org/2000/svg" xmlns:xlink="http://www.w3.org/1999/xlink" width="500" zoomAndPan="magnify" viewBox="0 0 375 37.5" height="50" preserveAspectRatio="xMidYMid meet" version="1.0"><defs><clipPath id="4eb0f48d70"><path d="M 3 1 L 372 1 L 372 36.453125 L 3 36.453125 Z M 3 1 " clip-rule="nonzero"/></clipPath></defs><g clip-path="url(#4eb0f48d70)"><path fill="#ffffff" d="M 184.824219 29.769531 L 186.089844 31.035156 L 182.148438 34.980469 C 181.429688 35.699219 180.484375 36.054688 179.539062 36.054688 C 178.589844 36.054688 177.644531 35.699219 176.925781 34.980469 L 161.511719 19.566406 L 6.34375 19.566406 C 6.058594 19.964844 5.597656 20.230469 5.070312 20.230469 C 4.210938 20.230469 3.511719 19.53125 3.511719 18.671875 C 3.511719 17.808594 4.210938 17.113281 5.070312 17.113281 C 5.597656 17.113281 6.058594 17.375 6.34375 17.773438 L 161.507812 17.773438 L 176.921875 2.363281 C 178.371094 0.925781 180.710938 0.929688 182.148438 2.363281 L 195.84375 16.058594 C 196.542969 16.753906 196.929688 17.683594 196.929688 18.671875 C 196.929688 19.660156 196.542969 20.585938 195.839844 21.285156 L 190.171875 26.953125 L 188.90625 25.6875 L 194.574219 20.015625 C 194.9375 19.65625 195.136719 19.179688 195.136719 18.671875 C 195.136719 18.164062 194.9375 17.6875 194.578125 17.328125 L 180.878906 3.632812 C 180.140625 2.894531 178.933594 2.894531 178.1875 3.632812 L 163.148438 18.667969 L 178.191406 33.710938 C 178.933594 34.449219 180.140625 34.449219 180.878906 33.710938 L 184.820312 29.769531 Z M 369.917969 17.113281 C 369.394531 17.113281 368.929688 17.375 368.648438 17.773438 L 213.484375 17.773438 L 198.066406 2.359375 C 196.621094 0.925781 194.277344 0.925781 192.84375 2.363281 L 188.90625 6.300781 L 190.171875 7.566406 L 194.113281 3.628906 C 194.851562 2.890625 196.058594 2.890625 196.796875 3.628906 L 211.839844 18.667969 L 196.800781 33.710938 C 196.058594 34.449219 194.851562 34.449219 194.113281 33.710938 L 180.414062 20.011719 C 180.054688 19.65625 179.855469 19.175781 179.855469 18.671875 C 179.855469 18.164062 180.054688 17.6875 180.414062 17.328125 L 186.089844 11.652344 L 184.824219 10.382812 L 179.148438 16.058594 C 178.445312 16.753906 178.0625 17.683594 178.0625 18.671875 C 178.0625 19.660156 178.445312 20.585938 179.148438 21.28125 L 192.84375 34.980469 C 193.5625 35.699219 194.507812 36.058594 195.453125 36.054688 C 196.398438 36.054688 197.34375 35.699219 198.066406 34.980469 L 213.480469 19.566406 L 368.648438 19.566406 C 368.929688 19.964844 369.390625 20.230469 369.917969 20.230469 C 370.777344 20.230469 371.476562 19.53125 371.476562 18.671875 C 371.476562 17.808594 370.777344 17.113281 369.917969 17.113281 Z M 369.917969 17.113281 " fill-opacity="1" fill-rule="nonzero"/></g></svg>