<svg xmlns="http://www.w3.org/2000/svg" xmlns:xlink="http://www.w3.org/1999/xlink" width="40" zoomAndPan="magnify" viewBox="0 0 30 30.000001" height="40" preserveAspectRatio="xMidYMid meet" version="1.0"><defs><clipPath id="05289fda76"><path d="M 2 2.902344 L 27.914062 2.902344 L 27.914062 26.128906 L 2 26.128906 Z M 2 2.902344 " clip-rule="nonzero"/></clipPath><clipPath id="070d88d0c8"><path d="M 16 14 L 27.914062 14 L 27.914062 26.128906 L 16 26.128906 Z M 16 14 " clip-rule="nonzero"/></clipPath></defs><g clip-path="url(#05289fda76)"><path fill="#ffffff" d="M 25.34375 17.066406 L 25.328125 17.066406 L 25.328125 14.523438 C 25.328125 13.785156 24.730469 13.1875 23.992188 13.1875 L 20.519531 13.1875 C 19.78125 13.1875 19.183594 13.785156 19.183594 14.523438 L 19.183594 17.066406 L 16.636719 17.066406 C 15.898438 17.066406 15.300781 17.664062 15.300781 18.402344 L 15.300781 21.882812 C 15.300781 22.621094 15.898438 23.21875 16.636719 23.21875 L 19.09375 23.21875 C 19.144531 23.21875 19.183594 23.257812 19.183594 23.304688 L 19.183594 23.417969 C 19.183594 23.449219 19.167969 23.472656 19.144531 23.492188 C 17.898438 24.402344 16.527344 25.261719 15.050781 26.054688 C 14.992188 26.09375 14.925781 26.117188 14.851562 26.117188 L 14.84375 26.117188 C 14.769531 26.117188 14.699219 26.09375 14.644531 26.054688 C 9.945312 23.53125 6.351562 20.363281 4.25 16.898438 C 2.421875 13.882812 1.785156 10.753906 2.453125 8.085938 C 3.257812 4.894531 5.824219 2.914062 9.15625 2.914062 C 10.734375 2.914062 12.085938 3.34375 13.179688 4.191406 C 13.890625 4.75 14.457031 5.46875 14.847656 6.300781 C 15.238281 5.46875 15.804688 4.75 16.515625 4.191406 C 17.601562 3.34375 18.957031 2.914062 20.539062 2.914062 C 23.867188 2.914062 26.433594 4.898438 27.238281 8.089844 C 28.003906 11.144531 26.992188 14.425781 25.34375 17.066406 Z M 25.34375 17.066406 " fill-opacity="1" fill-rule="nonzero"/></g><g clip-path="url(#070d88d0c8)"><path fill="#ffffff" d="M 27.863281 18.054688 L 24.339844 18.054688 L 24.339844 14.523438 C 24.339844 14.332031 24.183594 14.175781 23.992188 14.175781 L 20.519531 14.175781 C 20.328125 14.175781 20.171875 14.332031 20.171875 14.523438 L 20.171875 18.054688 L 16.636719 18.054688 C 16.445312 18.054688 16.289062 18.210938 16.289062 18.402344 L 16.289062 21.882812 C 16.289062 22.074219 16.445312 22.226562 16.636719 22.226562 L 20.171875 22.226562 L 20.171875 25.769531 C 20.171875 25.964844 20.328125 26.117188 20.519531 26.117188 L 23.992188 26.117188 C 24.183594 26.117188 24.339844 25.964844 24.339844 25.769531 L 24.339844 22.226562 L 27.863281 22.226562 C 28.054688 22.226562 28.210938 22.074219 28.210938 21.882812 L 28.210938 18.402344 C 28.210938 18.210938 28.054688 18.054688 27.863281 18.054688 Z M 27.863281 18.054688 " fill-opacity="1" fill-rule="nonzero"/></g></svg>