<svg xmlns="http://www.w3.org/2000/svg" xmlns:xlink="http://www.w3.org/1999/xlink" width="40" zoomAndPan="magnify" viewBox="0 0 30 30.000001" height="40" preserveAspectRatio="xMidYMid meet" version="1.0"><defs><clipPath id="2ecc7a50e7"><path d="M 1.675781 3.671875 L 28.53125 3.671875 L 28.53125 25.445312 L 1.675781 25.445312 Z M 1.675781 3.671875 " clip-rule="nonzero"/></clipPath><clipPath id="1287ea99ae"><path d="M 14 3.671875 L 19 3.671875 L 19 6 L 14 6 Z M 14 3.671875 " clip-rule="nonzero"/></clipPath><clipPath id="4686da6bc2"><path d="M 3 25 L 5 25 L 5 25.445312 L 3 25.445312 Z M 3 25 " clip-rule="nonzero"/></clipPath></defs><g clip-path="url(#2ecc7a50e7)"><path fill="#ffffff" d="M 4.128906 25.167969 C 4.125 25.160156 4.121094 25.15625 4.121094 25.152344 C 4.074219 24.917969 3.964844 24.742188 3.730469 24.648438 C 3.582031 24.589844 3.507812 24.464844 3.484375 24.296875 C 3.445312 24.03125 3.503906 23.785156 3.65625 23.570312 C 3.773438 23.40625 3.925781 23.261719 4.058594 23.109375 C 4.199219 22.941406 4.359375 22.789062 4.472656 22.605469 C 4.5625 22.464844 4.648438 22.355469 4.808594 22.3125 C 4.820312 22.3125 4.832031 22.304688 4.84375 22.296875 C 5.078125 22.1875 5.082031 22.171875 4.925781 21.96875 C 4.941406 21.953125 4.960938 21.9375 4.980469 21.921875 C 5.417969 21.625 5.859375 21.332031 6.292969 21.027344 C 6.894531 20.605469 7.53125 20.257812 8.230469 20.023438 C 8.625 19.890625 9.007812 19.71875 9.335938 19.449219 C 9.367188 19.421875 9.414062 19.40625 9.457031 19.402344 C 9.976562 19.394531 10.371094 19.140625 10.691406 18.757812 C 10.8125 18.605469 10.96875 18.511719 11.140625 18.429688 C 12.589844 17.742188 13.980469 16.949219 15.28125 16.003906 C 15.359375 15.949219 15.4375 15.890625 15.53125 15.820312 C 15.058594 15.332031 14.609375 14.855469 14.34375 14.242188 C 14.394531 14.269531 14.433594 14.308594 14.46875 14.351562 C 14.671875 14.582031 14.867188 14.8125 15.070312 15.042969 C 15.53125 15.550781 16.0625 15.96875 16.679688 16.277344 C 17.304688 16.585938 17.921875 16.910156 18.539062 17.238281 C 18.695312 17.324219 18.839844 17.441406 18.96875 17.566406 C 19.125 17.71875 19.21875 17.980469 19.210938 18.167969 C 19.164062 18.089844 19.121094 18.023438 19.085938 17.953125 C 18.976562 17.738281 18.800781 17.648438 18.566406 17.648438 C 18.398438 17.648438 18.230469 17.640625 18.0625 17.648438 C 17.90625 17.652344 17.746094 17.671875 17.589844 17.683594 C 17.84375 17.804688 18.117188 17.800781 18.371094 17.886719 C 18.367188 17.898438 18.367188 17.910156 18.363281 17.925781 C 16.359375 18.074219 14.355469 18.226562 12.347656 18.378906 C 13.277344 18.390625 14.203125 18.402344 15.128906 18.40625 C 16.050781 18.417969 16.972656 18.421875 17.894531 18.429688 C 17.894531 18.441406 17.894531 18.457031 17.894531 18.472656 C 16.394531 18.644531 14.894531 18.816406 13.390625 18.992188 C 13.394531 19 13.394531 19.011719 13.394531 19.023438 L 15.660156 19.023438 C 15.613281 19.082031 15.5625 19.113281 15.507812 19.140625 C 14.820312 19.476562 14.132812 19.816406 13.441406 20.148438 C 13.375 20.179688 13.285156 20.195312 13.210938 20.183594 C 13.089844 20.167969 13.003906 20.203125 12.929688 20.292969 C 12.738281 20.523438 12.492188 20.675781 12.203125 20.765625 C 12.109375 20.792969 12.015625 20.828125 11.925781 20.875 C 11.636719 21.015625 11.566406 21.324219 11.765625 21.578125 C 11.832031 21.660156 11.910156 21.734375 11.992188 21.800781 C 12.101562 21.882812 12.214844 21.960938 12.332031 22.035156 C 12.621094 22.21875 12.847656 22.460938 13.015625 22.761719 C 13.160156 23.011719 13.316406 23.25 13.46875 23.492188 C 13.476562 23.507812 13.480469 23.527344 13.492188 23.566406 C 10.691406 23.78125 7.902344 23.996094 5.113281 24.210938 C 5.230469 24.222656 5.34375 24.226562 5.460938 24.222656 C 5.929688 24.203125 6.394531 24.179688 6.863281 24.160156 C 7.582031 24.132812 8.296875 24.101562 9.015625 24.074219 C 9.914062 24.039062 10.808594 24.003906 11.707031 23.976562 C 12.582031 23.945312 13.453125 23.925781 14.328125 23.890625 C 14.5 23.882812 14.675781 23.847656 14.84375 23.808594 C 14.976562 23.773438 15 23.707031 14.941406 23.582031 C 14.871094 23.4375 14.769531 23.320312 14.613281 23.265625 C 14.421875 23.195312 14.316406 23.054688 14.230469 22.882812 C 14.089844 22.601562 14.054688 22.296875 14.019531 21.996094 C 13.992188 21.777344 13.984375 21.5625 13.96875 21.332031 C 14.121094 21.277344 14.261719 21.230469 14.402344 21.183594 C 14.695312 21.085938 14.695312 21.082031 14.652344 20.792969 C 14.648438 20.789062 14.652344 20.78125 14.660156 20.761719 C 14.914062 20.710938 15.175781 20.65625 15.4375 20.601562 C 16.691406 20.34375 17.9375 20.074219 19.152344 19.664062 C 19.597656 19.511719 20.039062 19.332031 20.472656 19.148438 C 20.78125 19.019531 20.964844 18.773438 21.03125 18.445312 C 21.074219 18.214844 21.09375 17.980469 21.023438 17.757812 C 20.910156 17.402344 20.800781 17.042969 20.652344 16.703125 C 20.195312 15.636719 19.460938 14.789062 18.546875 14.097656 C 18.175781 13.8125 17.777344 13.566406 17.390625 13.300781 C 17.332031 13.261719 17.261719 13.230469 17.222656 13.160156 C 17.605469 13.285156 17.925781 13.527344 18.269531 13.710938 C 18.605469 13.375 18.953125 13.078125 19.179688 12.675781 C 19.277344 12.5 19.429688 12.382812 19.617188 12.308594 C 19.742188 12.257812 19.871094 12.207031 20.003906 12.175781 C 20.527344 12.058594 21.050781 11.949219 21.578125 11.84375 C 22.121094 11.734375 22.617188 11.535156 23.019531 11.140625 C 23.03125 11.132812 23.046875 11.132812 23.089844 11.117188 C 22.902344 11.4375 22.628906 11.617188 22.328125 11.765625 C 22.371094 12.105469 22.515625 12.398438 22.679688 12.703125 C 21.847656 12.808594 21.042969 12.910156 20.242188 13.015625 C 20.242188 13.023438 20.242188 13.035156 20.242188 13.046875 L 22.992188 13.046875 C 23.027344 13.128906 23.058594 13.199219 23.09375 13.28125 C 21.714844 13.410156 20.363281 13.539062 19.011719 13.664062 C 19.101562 13.675781 19.195312 13.675781 19.289062 13.675781 C 19.957031 13.675781 20.625 13.675781 21.292969 13.675781 C 21.941406 13.675781 22.589844 13.671875 23.238281 13.675781 C 23.304688 13.675781 23.394531 13.679688 23.429688 13.71875 C 23.5625 13.863281 23.675781 14.023438 23.816406 14.203125 C 22.492188 14.332031 21.203125 14.460938 19.917969 14.585938 C 20 14.605469 20.078125 14.605469 20.160156 14.605469 C 21.492188 14.605469 22.820312 14.605469 24.148438 14.613281 C 24.480469 14.617188 24.765625 14.523438 25.011719 14.3125 C 25.203125 14.144531 25.398438 13.976562 25.5625 13.78125 C 25.902344 13.375 26.226562 12.957031 26.542969 12.527344 C 26.9375 11.992188 27.363281 11.496094 27.9375 11.136719 C 28.011719 11.09375 28.074219 11.03125 28.140625 10.972656 C 28.285156 10.847656 28.324219 10.695312 28.253906 10.519531 C 28.214844 10.425781 28.167969 10.335938 28.140625 10.242188 C 28.050781 9.914062 27.804688 9.800781 27.5 9.765625 C 27.496094 9.765625 27.488281 9.765625 27.484375 9.765625 C 27.335938 9.746094 27.277344 9.777344 27.210938 9.902344 C 27.191406 9.9375 27.179688 9.96875 27.167969 9.996094 C 26.917969 10.054688 26.878906 10.097656 26.855469 10.335938 C 26.847656 10.402344 26.839844 10.472656 26.847656 10.539062 C 26.878906 10.847656 26.757812 11.082031 26.53125 11.277344 C 26.453125 11.34375 26.386719 11.417969 26.300781 11.472656 C 26.066406 11.625 25.828125 11.765625 25.589844 11.914062 C 25.296875 12.09375 25.007812 12.277344 24.714844 12.457031 C 24.660156 12.492188 24.597656 12.519531 24.519531 12.5625 C 24.480469 12.414062 24.441406 12.292969 24.417969 12.164062 C 24.328125 11.683594 24.1875 11.222656 23.933594 10.796875 C 23.863281 10.679688 23.847656 10.5625 23.851562 10.425781 C 23.867188 9.917969 23.835938 9.414062 23.511719 8.984375 C 23.5 8.96875 23.503906 8.949219 23.5 8.933594 C 23.894531 8.84375 24.164062 9.074219 24.414062 9.304688 C 24.546875 9.21875 24.550781 9.21875 24.640625 9.019531 C 24.699219 8.886719 24.769531 8.773438 24.925781 8.773438 C 24.945312 8.726562 24.949219 8.671875 24.976562 8.648438 C 25.011719 8.625 25.066406 8.628906 25.117188 8.617188 C 25.132812 8.539062 25.148438 8.46875 25.164062 8.394531 C 25.199219 8.390625 25.222656 8.386719 25.246094 8.390625 C 25.523438 8.417969 25.527344 8.414062 25.476562 8.128906 C 25.449219 7.988281 25.398438 7.851562 25.4375 7.699219 C 25.570312 7.675781 25.59375 7.578125 25.617188 7.46875 C 25.640625 7.355469 25.679688 7.242188 25.71875 7.132812 C 25.757812 7.027344 25.808594 6.925781 25.839844 6.816406 C 25.867188 6.722656 25.90625 6.652344 26.003906 6.609375 C 26.148438 6.542969 26.207031 6.410156 26.1875 6.253906 C 26.179688 6.171875 26.160156 6.078125 26.117188 6.007812 C 26.027344 5.859375 25.929688 5.710938 25.8125 5.582031 C 25.285156 5.019531 24.601562 4.867188 23.867188 4.90625 C 23.445312 4.929688 23.027344 5.011719 22.605469 5.066406 C 22.019531 5.144531 21.433594 5.222656 20.847656 5.296875 C 21.410156 5.316406 21.972656 5.3125 22.53125 5.316406 C 23.09375 5.324219 23.652344 5.265625 24.214844 5.289062 C 24.214844 5.304688 24.21875 5.320312 24.21875 5.335938 C 23.289062 5.460938 22.363281 5.585938 21.433594 5.710938 C 21.886719 5.714844 22.335938 5.703125 22.796875 5.714844 C 22.742188 5.929688 22.671875 6.117188 22.648438 6.3125 C 22.617188 6.5625 22.527344 6.835938 22.789062 7.050781 C 22.683594 7.160156 22.59375 7.265625 22.492188 7.355469 C 22.394531 7.441406 22.273438 7.460938 22.140625 7.453125 C 22.066406 7.445312 22.015625 7.414062 21.992188 7.335938 C 21.882812 6.964844 21.640625 6.691406 21.328125 6.480469 C 21.023438 6.28125 20.757812 6.046875 20.527344 5.761719 C 20.285156 5.464844 19.964844 5.25 19.644531 5.042969 C 19.324219 4.832031 19.042969 4.582031 18.789062 4.296875 C 18.664062 4.152344 18.511719 4.023438 18.367188 3.898438 C 18.269531 3.8125 18.148438 3.777344 18.019531 3.792969 C 17.894531 3.804688 17.773438 3.824219 17.648438 3.832031 C 17.125 3.875 16.601562 3.910156 16.082031 3.953125 C 15.355469 4.011719 14.625 4.074219 13.898438 4.132812 C 13.046875 4.199219 12.195312 4.261719 11.34375 4.328125 C 10.578125 4.382812 9.8125 4.445312 9.046875 4.507812 C 8.542969 4.546875 8.042969 4.585938 7.539062 4.625 C 7.539062 4.632812 7.539062 4.636719 7.539062 4.644531 C 10.875 4.660156 14.210938 4.675781 17.546875 4.691406 C 17.546875 4.707031 17.546875 4.722656 17.546875 4.738281 C 15.253906 4.917969 12.957031 5.058594 10.660156 5.25 L 14.730469 5.25 C 14.730469 5.273438 14.734375 5.28125 14.730469 5.28125 C 14.707031 5.304688 14.683594 5.324219 14.65625 5.339844 C 14.257812 5.644531 13.804688 5.816406 13.316406 5.929688 C 12.941406 6.015625 12.570312 6.128906 12.199219 6.234375 C 12.039062 6.277344 11.9375 6.386719 11.929688 6.554688 C 11.921875 6.847656 11.902344 7.140625 11.925781 7.433594 C 11.957031 7.800781 12.214844 7.929688 12.550781 7.769531 C 12.679688 7.707031 12.800781 7.636719 12.921875 7.574219 C 13.160156 7.699219 13.261719 7.691406 13.457031 7.527344 C 13.519531 7.472656 13.582031 7.421875 13.628906 7.355469 C 13.777344 7.148438 13.925781 6.9375 14.0625 6.722656 C 14.125 6.621094 14.199219 6.558594 14.3125 6.519531 C 14.550781 6.441406 14.78125 6.34375 15.015625 6.265625 C 15.316406 6.164062 15.617188 6.054688 15.921875 5.976562 C 16.210938 5.902344 16.511719 5.875 16.804688 5.808594 C 17.082031 5.742188 17.355469 5.660156 17.628906 5.574219 C 17.925781 5.484375 18.054688 5.519531 18.222656 5.773438 C 18.308594 5.902344 18.386719 6.039062 18.453125 6.179688 C 18.503906 6.296875 18.578125 6.324219 18.699219 6.316406 C 18.980469 6.304688 19.261719 6.308594 19.542969 6.3125 C 19.613281 6.3125 19.683594 6.328125 19.753906 6.339844 C 19.753906 6.347656 19.753906 6.355469 19.75 6.367188 C 18.335938 6.5 16.921875 6.628906 15.507812 6.761719 C 15.511719 6.773438 15.511719 6.789062 15.511719 6.800781 L 18.800781 6.800781 C 18.984375 7.210938 19.246094 7.554688 19.519531 7.886719 C 19.667969 8.070312 19.730469 8.292969 19.742188 8.53125 C 19.753906 8.71875 19.734375 8.90625 19.632812 9.082031 C 19.632812 8.777344 19.648438 8.476562 19.535156 8.1875 C 19.417969 7.882812 19.15625 7.699219 18.957031 7.453125 C 18.691406 7.703125 18.449219 7.949219 18.238281 8.238281 C 18.441406 8.335938 18.664062 8.347656 18.84375 8.472656 C 14.128906 8.613281 9.417969 8.757812 4.703125 8.902344 C 6.878906 8.914062 9.054688 8.914062 11.234375 8.914062 C 13.414062 8.914062 15.589844 8.917969 17.789062 8.921875 C 17.742188 9.050781 17.703125 9.152344 17.660156 9.261719 C 18.199219 9.335938 18.722656 9.355469 19.234375 9.433594 C 19.234375 9.449219 19.230469 9.464844 19.230469 9.476562 C 15.777344 9.621094 12.320312 9.769531 8.867188 9.914062 C 11.613281 9.890625 14.359375 9.902344 17.128906 9.910156 C 17.085938 9.980469 17.066406 10.023438 17.039062 10.066406 C 17.546875 10.125 18.046875 10.101562 18.539062 10.15625 C 18.539062 10.167969 18.539062 10.183594 18.539062 10.199219 C 15.0625 10.339844 11.585938 10.484375 8.113281 10.625 C 10.808594 10.644531 13.503906 10.640625 16.203125 10.652344 C 16.207031 10.667969 16.210938 10.683594 16.21875 10.699219 C 15.722656 11.011719 15.226562 11.324219 14.691406 11.660156 C 15.683594 11.675781 16.632812 11.6875 17.578125 11.699219 C 17.578125 11.714844 17.578125 11.726562 17.578125 11.738281 C 17.515625 11.75 17.449219 11.765625 17.382812 11.769531 C 17.125 11.78125 16.871094 11.792969 16.617188 11.800781 C 15.5625 11.839844 14.507812 11.875 13.453125 11.917969 C 12.164062 11.964844 10.871094 12.019531 9.582031 12.070312 C 8.472656 12.113281 7.359375 12.15625 6.25 12.199219 C 6.25 12.199219 6.25 12.203125 6.25 12.207031 L 13.859375 12.207031 C 13.832031 12.246094 13.820312 12.269531 13.804688 12.285156 C 13.476562 12.601562 13.257812 12.976562 13.15625 13.421875 C 13.132812 13.523438 13.070312 13.527344 12.992188 13.53125 C 12.679688 13.542969 12.367188 13.554688 12.054688 13.566406 C 10.921875 13.617188 9.789062 13.667969 8.652344 13.714844 C 7.363281 13.769531 6.070312 13.816406 4.78125 13.871094 C 4.417969 13.886719 4.054688 13.90625 3.691406 13.921875 C 3.691406 13.929688 3.691406 13.9375 3.695312 13.945312 L 12.792969 13.945312 C 12.675781 14.085938 12.617188 14.234375 12.429688 14.246094 C 12.097656 14.265625 11.769531 14.292969 11.4375 14.316406 C 10.878906 14.359375 10.320312 14.394531 9.757812 14.4375 C 8.976562 14.5 8.195312 14.566406 7.566406 14.617188 C 8.921875 14.617188 10.429688 14.617188 11.941406 14.617188 C 11.972656 14.617188 12.003906 14.621094 12.035156 14.625 C 12.039062 14.625 12.042969 14.632812 12.046875 14.636719 C 12.046875 14.640625 12.050781 14.648438 12.054688 14.667969 C 11.964844 14.742188 11.867188 14.820312 11.769531 14.898438 C 11.289062 15.28125 10.800781 15.660156 10.320312 16.050781 C 9.871094 16.417969 9.507812 16.859375 9.203125 17.347656 C 9.121094 17.480469 9.023438 17.523438 8.886719 17.539062 C 8.484375 17.574219 8.078125 17.601562 7.695312 17.746094 C 7.652344 17.761719 7.609375 17.761719 7.566406 17.765625 C 6.96875 17.816406 6.371094 17.863281 5.773438 17.910156 C 5.140625 17.960938 4.503906 18.003906 3.871094 18.054688 C 3.5 18.082031 3.128906 18.121094 2.753906 18.152344 C 3.488281 18.136719 4.222656 18.132812 4.957031 18.136719 C 5.6875 18.136719 6.417969 18.132812 7.191406 18.140625 C 7.113281 18.226562 7.0625 18.273438 7.019531 18.324219 C 6.933594 18.433594 6.828125 18.488281 6.6875 18.496094 C 6.300781 18.519531 5.914062 18.554688 5.53125 18.585938 C 5.007812 18.625 4.488281 18.664062 3.964844 18.703125 C 4.835938 18.734375 5.703125 18.703125 6.601562 18.734375 C 6.25 19.140625 5.921875 19.515625 5.597656 19.894531 C 5.542969 19.957031 5.476562 19.96875 5.398438 19.972656 C 5 20 4.601562 20.03125 4.203125 20.0625 C 3.621094 20.105469 3.035156 20.152344 2.449219 20.199219 C 2.261719 20.210938 2.074219 20.226562 1.886719 20.242188 C 1.886719 20.253906 1.886719 20.261719 1.890625 20.273438 L 5.222656 20.273438 C 4.867188 20.648438 4.492188 20.9375 4.097656 21.21875 C 3.914062 21.074219 3.757812 21.125 3.605469 21.257812 C 3.550781 21.308594 3.488281 21.351562 3.429688 21.398438 C 3.304688 21.496094 3.167969 21.566406 3.007812 21.589844 C 2.890625 21.605469 2.777344 21.632812 2.660156 21.65625 C 2.328125 21.71875 2.167969 22.027344 2.230469 22.3125 C 2.261719 22.464844 2.316406 22.613281 2.375 22.757812 C 2.429688 22.894531 2.5 23.027344 2.566406 23.160156 C 2.699219 23.421875 2.707031 23.683594 2.59375 23.957031 C 2.527344 24.105469 2.472656 24.257812 2.425781 24.414062 C 2.351562 24.675781 2.398438 24.90625 2.640625 25.070312 C 2.695312 25.105469 2.742188 25.144531 2.792969 25.183594 C 2.816406 25.203125 2.832031 25.230469 2.867188 25.269531 C 2.453125 25.292969 2.0625 25.316406 1.675781 25.339844 C 1.757812 25.351562 1.835938 25.351562 1.917969 25.351562 C 2.65625 25.347656 3.390625 25.34375 4.128906 25.335938 C 4.121094 25.277344 4.121094 25.222656 4.128906 25.167969 Z M 4.128906 25.167969 " fill-opacity="1" fill-rule="nonzero"/></g><path fill="#ffffff" d="M 23.757812 4.910156 C 23.757812 4.910156 22.742188 5.203125 22.796875 5.710938 C 22.851562 6.230469 23.832031 6.121094 23.882812 6.136719 C 23.9375 6.15625 24.226562 6.238281 24.289062 6.136719 C 24.351562 6.039062 24.441406 5.824219 24.441406 5.625 C 24.441406 5.429688 24.515625 5.195312 24.351562 5.140625 C 24.191406 5.085938 23.757812 4.910156 23.757812 4.910156 Z M 23.757812 4.910156 " fill-opacity="1" fill-rule="nonzero"/><g clip-path="url(#1287ea99ae)"><path fill="#ffffff" d="M 14.730469 5.28125 C 14.917969 5.210938 17.800781 3.679688 18.085938 3.785156 C 18.367188 3.894531 18.085938 4.910156 18.085938 4.910156 C 18.085938 4.910156 17.300781 5.273438 17.167969 5.28125 C 17.03125 5.292969 16.222656 5.28125 16.222656 5.28125 Z M 14.730469 5.28125 " fill-opacity="1" fill-rule="nonzero"/></g><path fill="#ffffff" d="M 18.453125 6.175781 L 19.046875 7.25 C 19.046875 7.25 18.738281 7.902344 18.453125 7.96875 C 18.988281 8.320312 19.636719 9.574219 19.636719 9.574219 C 19.636719 9.574219 20.5 9.882812 20.660156 9.464844 C 20.824219 9.046875 20.917969 8.089844 20.824219 7.78125 C 20.730469 7.46875 20.214844 6.699219 20.1875 6.621094 C 20.164062 6.539062 19.703125 6.027344 19.65625 6 C 19.609375 5.972656 19.433594 5.742188 19.273438 5.714844 C 19.109375 5.6875 18.453125 6.175781 18.453125 6.175781 Z M 18.453125 6.175781 " fill-opacity="1" fill-rule="nonzero"/><path fill="#ffffff" d="M 18.328125 8.121094 C 18.328125 8.121094 16.171875 10.902344 16.15625 10.738281 C 16.195312 10.882812 18.542969 11.097656 18.773438 11.097656 C 19.003906 11.097656 19.566406 10.988281 19.839844 10.585938 C 20.109375 10.179688 20.742188 9.035156 20.59375 8.820312 C 20.445312 8.601562 20.472656 8.347656 20.082031 8.210938 C 19.6875 8.078125 18.328125 8.121094 18.328125 8.121094 Z M 18.328125 8.121094 " fill-opacity="1" fill-rule="nonzero"/><path fill="#ffffff" d="M 14.980469 11.476562 C 14.980469 11.476562 14.976562 11.480469 14.964844 11.488281 C 14.824219 11.570312 13.910156 12.128906 13.859375 12.203125 C 13.804688 12.28125 15.484375 12.765625 15.917969 12.765625 C 16.347656 12.765625 17.292969 12.660156 17.609375 12.523438 C 17.921875 12.386719 18.570312 12.46875 18.453125 11.804688 C 18.335938 11.140625 18.628906 10.910156 18.164062 10.957031 C 17.703125 11.007812 17.699219 10.90625 17.671875 10.953125 C 17.640625 11 14.980469 11.476562 14.980469 11.476562 Z M 14.980469 11.476562 " fill-opacity="1" fill-rule="nonzero"/><path fill="#ffffff" d="M 15.363281 15.941406 C 15.363281 15.941406 16.15625 15.511719 16.160156 15.417969 C 16.167969 15.328125 15.324219 14.050781 15.1875 14.007812 C 15.054688 13.960938 13.984375 13.664062 13.972656 13.710938 C 13.964844 13.753906 14.117188 14.167969 14.117188 14.3125 C 14.117188 14.457031 14.28125 14.851562 14.351562 15.105469 C 14.421875 15.355469 15.363281 15.941406 15.363281 15.941406 Z M 15.363281 15.941406 " fill-opacity="1" fill-rule="nonzero"/><path fill="#ffffff" d="M 18.652344 13.335938 L 17.679688 14.285156 C 17.679688 14.285156 16.257812 13.398438 16.257812 13.335938 C 16.257812 13.269531 16.484375 12.46875 16.574219 12.46875 C 16.664062 12.46875 17.625 12.445312 17.789062 12.46875 C 17.949219 12.496094 18.460938 12.695312 18.464844 12.765625 C 18.472656 12.839844 18.652344 13.335938 18.652344 13.335938 Z M 18.652344 13.335938 " fill-opacity="1" fill-rule="nonzero"/><path fill="#ffffff" d="M 22.347656 11.882812 C 22.332031 11.796875 22.21875 11.097656 22.21875 11.097656 L 23.628906 10.574219 C 23.628906 10.574219 23.5 10.753906 23.511719 10.875 C 23.527344 10.996094 23.601562 11.804688 23.5625 11.851562 C 23.519531 11.902344 23.117188 12.097656 23.007812 12.082031 C 22.898438 12.070312 22.347656 11.882812 22.347656 11.882812 Z M 22.347656 11.882812 " fill-opacity="1" fill-rule="nonzero"/><path fill="#ffffff" d="M 15.425781 19.179688 L 19.445312 16.925781 L 19.75 17.714844 C 19.75 17.714844 19.953125 18.382812 19.648438 18.605469 C 19.347656 18.828125 18.3125 19.414062 17.828125 19.433594 C 17.34375 19.457031 16.160156 19.554688 16.160156 19.554688 Z M 15.425781 19.179688 " fill-opacity="1" fill-rule="nonzero"/><g clip-path="url(#4686da6bc2)"><path fill="#ffffff" d="M 4.121094 25.152344 L 4.199219 25.332031 L 3.957031 25.332031 C 3.957031 25.332031 3.96875 25.207031 3.984375 25.203125 C 3.996094 25.199219 4.121094 25.152344 4.121094 25.152344 Z M 4.121094 25.152344 " fill-opacity="1" fill-rule="nonzero"/></g></svg>