<svg xmlns="http://www.w3.org/2000/svg" xmlns:xlink="http://www.w3.org/1999/xlink" width="40" zoomAndPan="magnify" viewBox="0 0 30 30.000001" height="40" preserveAspectRatio="xMidYMid meet" version="1.0"><defs><clipPath id="86958f3b87"><path d="M 15 1.5 L 21 1.5 L 21 7 L 15 7 Z M 15 1.5 " clip-rule="nonzero"/></clipPath><clipPath id="35204c6b7d"><path d="M 8.75 2.917969 L 24.710938 2.917969 L 24.710938 27.503906 L 8.75 27.503906 Z M 8.75 2.917969 " clip-rule="nonzero"/></clipPath><clipPath id="992d3ed8b6"><path d="M 0.8125 2 L 27 2 L 27 5 L 0.8125 5 Z M 0.8125 2 " clip-rule="nonzero"/></clipPath><clipPath id="99b6b95db4"><path d="M 24.273438 2.570312 L 29.121094 2.570312 L 29.121094 3.265625 L 24.273438 3.265625 Z M 24.273438 2.570312 " clip-rule="nonzero"/></clipPath></defs><g clip-path="url(#86958f3b87)"><path fill="#ffffff" d="M 19.011719 4.085938 C 18.609375 3.847656 17.738281 3.519531 17.144531 4.699219 C 17.105469 4.773438 17.039062 4.828125 16.957031 4.84375 C 16.734375 4.890625 16.289062 5.039062 16.242188 5.445312 C 16.242188 5.460938 16.238281 5.476562 16.234375 5.488281 L 16.09375 5.976562 C 16.042969 6.152344 15.835938 6.230469 15.683594 6.128906 C 15.449219 5.972656 15.179688 5.707031 15.257812 5.351562 C 15.257812 5.351562 15.558594 1.578125 18.601562 1.523438 C 18.617188 1.523438 18.632812 1.523438 18.648438 1.523438 C 18.820312 1.550781 19.925781 1.730469 20.621094 2.464844 C 20.746094 2.601562 20.703125 2.824219 20.53125 2.898438 L 20.011719 3.136719 C 19.964844 3.160156 19.925781 3.191406 19.898438 3.234375 L 19.378906 4.007812 C 19.296875 4.128906 19.136719 4.164062 19.011719 4.085938 " fill-opacity="1" fill-rule="nonzero"/></g><path fill="#ffffff" d="M 21.613281 4.972656 C 21.433594 6.6875 21.175781 11.726562 23.546875 17.226562 C 23.6875 17.550781 24.117188 17.617188 24.347656 17.347656 C 24.777344 16.835938 25.304688 15.605469 25.398438 12.628906 C 25.453125 10.902344 25.167969 9.171875 24.511719 7.570312 C 24.03125 6.386719 23.320312 5.183594 22.324219 4.609375 C 22.027344 4.4375 21.652344 4.628906 21.613281 4.972656 " fill-opacity="1" fill-rule="nonzero"/><g clip-path="url(#35204c6b7d)"><path fill="#ffffff" d="M 24.707031 26.5 C 24.566406 25.941406 23.308594 25.414062 23.21875 25.378906 C 23.214844 25.378906 23.210938 25.375 23.207031 25.375 C 23.050781 25.28125 22.917969 25.226562 22.800781 25.195312 C 22.527344 25.128906 22.59375 24.699219 22.644531 24.417969 C 22.910156 22.863281 23.550781 19.429688 23.59375 19.179688 C 23.597656 19.171875 23.597656 19.160156 23.597656 19.152344 C 23.535156 18.503906 22.496094 17.558594 22.355469 17.433594 C 22.34375 17.421875 22.335938 17.414062 22.332031 17.398438 C 21.941406 16.476562 20.074219 14.660156 19.933594 14.523438 C 19.925781 14.519531 19.921875 14.511719 19.917969 14.507812 C 19.753906 14.25 19.570312 13.058594 19.542969 12.871094 C 19.539062 12.855469 19.542969 12.839844 19.546875 12.820312 L 20.078125 11.34375 L 21.003906 10.488281 C 21.027344 10.464844 21.0625 10.453125 21.09375 10.460938 C 21.980469 10.667969 22.324219 12.015625 22.433594 12.625 C 22.453125 12.71875 22.578125 12.742188 22.625 12.65625 L 22.996094 11.964844 C 23.003906 11.949219 23.007812 11.933594 23.007812 11.914062 L 23.007812 9.863281 C 23.007812 9.84375 23 9.820312 22.988281 9.804688 L 22.511719 9.136719 C 22.34375 8.90625 22.011719 8.726562 21.671875 8.59375 C 21.195312 8.40625 20.789062 8.082031 20.453125 7.695312 C 20.039062 7.21875 19.210938 7.125 19.210938 7.125 C 19.066406 7.058594 18.855469 6.828125 18.742188 6.699219 C 18.910156 6.585938 19.117188 6.535156 19.328125 6.578125 C 19.394531 6.589844 19.449219 6.601562 19.472656 6.597656 C 19.597656 6.59375 19.703125 6.507812 19.71875 6.382812 L 19.78125 5.855469 C 19.789062 5.785156 19.851562 5.742188 19.917969 5.769531 C 20.007812 5.800781 20.09375 5.722656 20.070312 5.632812 C 20.027344 5.464844 19.953125 5.25 19.933594 5.070312 C 20.046875 5.023438 20.082031 4.886719 20.082031 4.742188 C 20.074219 4.390625 19.867188 4.078125 19.554688 3.917969 C 19.441406 3.863281 19.308594 3.808594 19.160156 3.78125 C 18.367188 3.617188 16.835938 3.835938 16.386719 4.386719 C 16.386719 4.386719 16.726562 4.957031 16.867188 5.300781 C 16.859375 5.566406 16.683594 5.941406 16.53125 6.21875 C 16.402344 6.449219 16.183594 6.613281 15.925781 6.675781 C 15.570312 6.757812 15.046875 6.882812 14.757812 6.949219 C 14.4375 7.023438 14.105469 7.039062 13.777344 7.007812 C 13.460938 6.976562 13.035156 7.007812 12.828125 7.027344 C 12.765625 7.035156 12.714844 6.980469 12.71875 6.914062 C 12.789062 6.308594 12.875 5.027344 12.882812 4.871094 C 12.882812 4.859375 12.886719 4.851562 12.890625 4.839844 C 13.160156 4.207031 13.167969 3.472656 13.167969 3.3125 C 13.167969 3.292969 13.160156 3.273438 13.152344 3.257812 C 12.941406 2.964844 12.390625 2.980469 12.039062 3.015625 C 11.824219 3.039062 11.609375 3.097656 11.609375 3.316406 C 11.609375 3.636719 11.734375 4.007812 11.753906 4.054688 C 11.753906 4.058594 11.753906 4.0625 11.753906 4.066406 C 11.855469 4.472656 11.726562 4.855469 11.726562 4.855469 L 11.191406 6.339844 C 11.191406 6.34375 11.1875 6.347656 11.1875 6.351562 L 10.984375 7.265625 C 10.984375 7.269531 10.980469 7.273438 10.980469 7.277344 C 10.6875 8.039062 11.367188 8.34375 11.5 8.394531 C 11.515625 8.398438 11.527344 8.410156 11.539062 8.421875 C 12.242188 9.257812 13.78125 9.558594 14.160156 9.621094 C 14.210938 9.628906 14.242188 9.671875 14.246094 9.722656 C 14.257812 10.710938 15.1875 12.011719 15.332031 12.203125 C 15.34375 12.222656 15.351562 12.242188 15.351562 12.261719 C 15.359375 12.785156 14.972656 15.054688 14.921875 15.355469 C 14.917969 15.378906 14.90625 15.398438 14.890625 15.414062 C 14.246094 16.011719 13.527344 18.164062 13.28125 18.953125 C 13.226562 19.125 13.140625 19.289062 13.023438 19.425781 C 11.890625 20.753906 10.351562 24.515625 10.246094 24.777344 C 10.242188 24.789062 10.234375 24.796875 10.226562 24.804688 C 10.007812 25.058594 9.582031 25.8125 9.523438 25.914062 C 9.519531 25.917969 9.515625 25.925781 9.511719 25.933594 C 9.15625 26.300781 8.96875 26.578125 8.871094 26.78125 C 8.757812 27.019531 8.863281 27.296875 9.109375 27.394531 C 9.519531 27.554688 10.039062 27.507812 10.390625 27.4375 C 10.632812 27.390625 10.816406 27.191406 10.835938 26.945312 L 10.902344 26.183594 C 10.90625 26.164062 10.914062 26.148438 10.921875 26.132812 C 11.160156 25.804688 11.554688 24.910156 11.617188 24.761719 C 11.621094 24.75 11.632812 24.738281 11.640625 24.726562 C 12.472656 24.003906 13.320312 22.554688 13.4375 22.351562 C 13.445312 22.335938 13.449219 22.316406 13.445312 22.296875 C 13.441406 22.011719 14.0625 21.355469 14.113281 21.300781 C 14.117188 21.300781 14.117188 21.296875 14.121094 21.296875 C 14.460938 21.023438 15.53125 19.46875 15.667969 19.265625 C 15.679688 19.25 15.695312 19.238281 15.710938 19.230469 C 16.394531 18.917969 16.902344 17.972656 17.15625 17.421875 C 17.261719 17.183594 17.527344 17.0625 17.777344 17.136719 C 18.105469 17.230469 18.402344 17.414062 18.632812 17.667969 C 19.316406 18.421875 21.261719 19.386719 21.429688 19.46875 C 21.433594 19.472656 21.441406 19.476562 21.449219 19.484375 C 21.804688 19.78125 21.789062 20.054688 21.671875 20.257812 C 21.34375 20.839844 21.160156 21.492188 21.199219 22.160156 C 21.246094 22.917969 21.125 23.886719 21.109375 24.003906 C 21.109375 24.011719 21.109375 24.019531 21.109375 24.027344 C 21.15625 24.40625 20.949219 25.339844 20.828125 25.832031 C 20.785156 26.007812 20.886719 26.1875 21.0625 26.238281 L 24.296875 26.75 C 24.460938 26.796875 24.632812 26.714844 24.699219 26.5625 C 24.710938 26.542969 24.710938 26.523438 24.707031 26.5 " fill-opacity="1" fill-rule="nonzero"/></g><g clip-path="url(#992d3ed8b6)"><path fill="#ffffff" d="M 25.875 3.019531 L 0.953125 4.0625 C 0.878906 4.066406 0.816406 4.007812 0.8125 3.933594 C 0.808594 3.859375 0.867188 3.796875 0.941406 3.796875 L 25.863281 2.753906 C 25.9375 2.75 26 2.804688 26.003906 2.878906 C 26.007812 2.953125 25.949219 3.015625 25.875 3.019531 " fill-opacity="1" fill-rule="nonzero"/></g><g clip-path="url(#99b6b95db4)"><path fill="#ffffff" d="M 24.363281 3.050781 L 24.355469 2.832031 C 24.351562 2.722656 24.65625 2.625 24.984375 2.632812 L 29.171875 2.738281 L 25.007812 3.195312 C 24.679688 3.230469 24.367188 3.164062 24.363281 3.050781 " fill-opacity="1" fill-rule="nonzero"/></g></svg>